<svg width="30" height="30" viewBox="0 0 30 30" fill="none" xmlns="http://www.w3.org/2000/svg">
<path d="M0 14.829C0.009457 14.605 0.0212783 14.3809 0.0260068 14.1547C0.0401923 13.1889 0.0543778 12.2209 0.0685633 11.2551C0.0685633 11.2225 0.0685633 11.1899 0.0732918 11.1573C0.120577 10.7809 0.813302 10.1654 1.22232 10.1588C2.5132 10.1349 3.80172 10.1088 5.0926 10.1066C8.18504 10.1001 11.2751 10.1045 14.3676 10.1045C14.4314 10.1045 14.4976 10.1045 14.5851 10.1045C14.3368 7.80527 15.1454 5.89762 17.0581 4.41849C18.2709 3.47662 19.6918 2.9872 21.2877 3.00025C23.3304 3.01766 25.0209 3.77463 26.3661 5.17328C27.7161 6.57628 28.2221 8.23379 27.9833 10.1088C28.1937 10.1088 28.371 10.1066 28.5483 10.1088C29.0306 10.1175 29.3593 10.3742 29.6572 10.6831C29.8558 10.8897 29.9361 11.1203 29.9432 11.4009C30.0284 15.8448 30.0023 20.2887 29.9645 24.7349C29.9622 25.1199 29.9432 25.5049 29.9361 25.8899C29.9314 26.1139 29.7848 26.2727 29.6406 26.4315C29.5579 26.5207 29.468 26.6055 29.3711 26.6795C29.1867 26.8231 28.9999 26.9405 28.7351 26.9427C27.092 26.9514 25.4512 26.9818 23.808 26.9884C20.7203 26.9992 17.6349 27.0014 14.5472 26.9992C11.1451 26.9971 7.74056 26.9905 4.3384 26.9797C3.33832 26.9775 2.33824 26.947 1.33817 26.9449C1.06155 26.9449 0.846402 26.8492 0.650169 26.6904C0.543778 26.6034 0.444479 26.5098 0.347545 26.4119C0.153676 26.2183 0.0638348 25.9965 0.0638348 25.7246C0.0638348 24.7153 0.0425565 23.706 0.0260068 22.6989C0.0236425 22.5531 0.0118213 22.4096 0.00236425 22.2638C0 19.7841 0 17.3065 0 14.829ZM4.83962 26.1139C11.4572 26.1139 18.0605 26.1139 24.652 26.1139C24.652 22.2725 24.652 18.442 24.652 14.6049C24.6095 14.6115 24.5953 14.6137 24.5811 14.618C24.4393 14.6789 24.295 14.742 24.1532 14.8051C22.9096 15.351 21.6069 15.5294 20.2427 15.3402C19.5524 15.2445 18.9022 15.0356 18.2686 14.7703C18.1882 14.7376 18.0794 14.7268 17.9967 14.7463C16.9895 14.9726 15.9823 15.2053 14.9775 15.4337C14.7624 15.4816 14.5449 15.5229 14.3037 15.5729C14.3345 15.4772 14.3534 15.4098 14.377 15.3445C14.734 14.4244 15.091 13.5021 15.4504 12.582C15.4835 12.4972 15.4835 12.4276 15.4409 12.3449C15.2423 11.9403 15.0461 11.5336 14.8664 11.1203C14.8168 11.0093 14.7647 10.9724 14.6394 10.9724C11.4359 10.9745 8.23232 10.9745 5.02876 10.9745C4.96966 10.9745 4.90819 10.9811 4.84199 10.9854C4.83962 16.0319 4.83962 21.0675 4.83962 26.1139ZM15.8003 14.3178C15.8689 14.3091 15.8972 14.3069 15.928 14.3026C16.6018 14.1569 17.2756 14.0176 17.9447 13.861C18.1574 13.811 18.3348 13.8175 18.5357 13.9154C19.7273 14.4984 20.9922 14.6898 22.3233 14.4723C23.8364 14.2243 25.0658 13.5391 25.9737 12.3993C26.9737 11.142 27.2953 9.72597 26.9974 8.20116C26.7681 7.02003 26.1652 6.01073 25.1816 5.21678C23.7063 4.02695 21.9852 3.65281 20.0701 3.98562C17.4576 4.43371 15.1312 6.74377 15.5237 9.85866C15.6301 10.7113 15.928 11.5009 16.4812 12.1992C16.5474 12.2818 16.545 12.3493 16.5096 12.4428C16.3015 12.9648 16.0982 13.4912 15.8972 14.0155C15.8618 14.1047 15.8381 14.2004 15.8003 14.3178ZM3.88683 18.5464C3.88683 17.9461 3.88683 17.3457 3.88683 16.7432C3.88683 14.8747 3.88683 13.0084 3.88919 11.1399C3.88919 11.0398 3.8821 10.9724 3.73788 10.9745C2.95768 10.9854 2.17748 10.9854 1.39727 10.9963C1.12538 11.0006 1.02136 11.0964 1.00954 11.3487C0.99535 11.6489 0.9788 11.949 0.9788 12.2492C0.974071 14.0981 0.971707 15.947 0.971707 17.796C0.971707 20.2365 0.976436 22.6771 0.983528 25.1177C0.983528 25.3613 1.00008 25.6049 1.02845 25.8486C1.04736 26.0182 1.1372 26.0835 1.32162 26.0965C1.48948 26.1096 1.65734 26.1205 1.8252 26.1226C2.44227 26.127 3.05934 26.1248 3.67641 26.1248C3.88919 26.1248 3.88919 26.1248 3.88919 25.9247C3.88683 23.4645 3.88683 21.0044 3.88683 18.5464ZM29.0188 18.9401C28.9975 18.9379 28.9786 18.9336 28.9573 18.9314C28.6524 19.6036 28.1582 20.0625 27.3213 20.0582C26.4867 20.0538 25.9949 19.597 25.7089 18.9075C25.6947 18.9118 25.6805 18.9184 25.6663 18.9227C25.6663 21.3198 25.6663 23.7147 25.6663 26.1226C26.1699 26.1226 26.6806 26.127 27.1889 26.1226C27.6736 26.1183 28.1582 26.1096 28.6405 26.0965C28.8841 26.09 28.9763 25.9965 28.9928 25.7746C29.0023 25.6397 29.0188 25.5027 29.0188 25.3678C29.0188 23.5428 29.0165 21.7179 29.0165 19.8929C29.0188 19.5753 29.0188 19.2577 29.0188 18.9401ZM28.9786 18.218C28.9881 18.144 28.9928 18.1201 28.9928 18.094C29.0023 17.7198 29.0188 17.3435 29.0188 16.9694C29.0235 15.3184 29.0235 13.6674 29.0235 12.0143C29.0235 11.7794 29.007 11.5466 28.9928 11.3117C28.981 11.1138 28.8699 11.0072 28.6595 10.9963C28.3994 10.9832 28.1393 10.9854 27.8792 10.9767C27.787 10.9745 27.7469 11.0072 27.7138 11.0855C27.6168 11.3226 27.5175 11.5575 27.4017 11.7859C27.0021 12.5798 26.411 13.2454 25.742 13.8589C25.6852 13.9111 25.6379 14.0024 25.6379 14.0742C25.6356 15.251 25.6403 16.4299 25.6474 17.6067C25.6474 17.796 25.6663 17.9852 25.6758 18.1745C25.9949 17.5023 26.4938 17.0433 27.3213 17.0368C28.1582 17.0346 28.6642 17.4958 28.9786 18.218ZM27.3307 19.2272C27.7043 19.2816 28.0802 18.9118 28.0826 18.5551C28.0826 18.2027 27.7279 17.8677 27.3402 17.8656C26.9335 17.8634 26.5907 18.2223 26.5884 18.5486C26.5836 18.8988 26.9619 19.2795 27.3307 19.2272Z" fill="url(#paint0_linear)"/>
<path d="M18.9595 11.645C20.9219 9.98102 22.8653 8.33004 24.8252 6.66602C25.012 6.86396 25.1917 7.05538 25.3714 7.24462C25.44 7.3164 25.3738 7.35338 25.3265 7.39471C24.9175 7.74927 24.5108 8.10382 24.0994 8.45403C22.7754 9.58296 21.4491 10.7119 20.1251 11.8386C19.7421 12.1627 19.3591 12.4869 18.9761 12.811C18.8177 12.9458 18.7869 12.948 18.6593 12.7805C18.3803 12.4172 18.106 12.0496 17.8365 11.6799C17.4417 11.1382 17.0563 10.5923 16.6639 10.0506C16.5882 9.94839 16.5929 9.88314 16.7088 9.81353C16.8719 9.71782 17.0279 9.61341 17.184 9.50465C17.2833 9.43505 17.3448 9.44592 17.4157 9.54381C17.8767 10.179 18.3448 10.8098 18.8106 11.4428C18.8531 11.5058 18.9004 11.5667 18.9595 11.645Z" fill="url(#paint1_linear)"/>
<path d="M2.8942 20.7583C2.57975 20.7583 2.27713 20.7583 1.95796 20.7583C1.95323 20.7083 1.94377 20.6583 1.94377 20.6082C1.94377 19.8295 1.94613 19.0508 1.94141 18.2721C1.94141 18.1416 1.98633 18.1024 2.12582 18.1068C2.37879 18.1155 2.63413 18.1089 2.8942 18.1089C2.8942 18.9986 2.8942 19.8709 2.8942 20.7583Z" fill="url(#paint2_linear)"/>
<path d="M2.89615 16.3408C2.89615 16.6279 2.89615 16.9085 2.89615 17.2131C2.67864 17.2131 2.46113 17.2131 2.24598 17.2131C1.94336 17.2131 1.94336 17.2131 1.94336 16.9412C1.94336 16.7454 1.94336 16.5496 1.94336 16.343C2.26726 16.3408 2.57225 16.3408 2.89615 16.3408Z" fill="url(#paint3_linear)"/>
<path fill-rule="evenodd" clip-rule="evenodd" d="M5.82697 20.3391L5.83018 20.3759L5.89245 20.369C5.96712 20.3606 6.03668 20.3527 6.10916 20.3476L6.10965 20.3476L6.10969 20.3476L6.10973 20.3476L6.10977 20.3475L6.10981 20.3475C6.78577 20.2671 7.46173 20.1866 8.13769 20.1083L8.1381 20.1083C8.58244 20.0561 9.02679 20.0039 9.47113 19.9561C9.67445 19.9343 9.67918 19.9387 9.67918 20.1236C9.67997 20.2562 9.68023 20.3891 9.6805 20.5221V20.5221V20.5222V20.5222V20.5223V20.5223C9.68102 20.7883 9.68155 21.0546 9.68628 21.3199C9.68628 21.4222 9.64608 21.4831 9.56097 21.5396C9.27886 21.731 8.99886 21.9244 8.71885 22.1177C8.57881 22.2144 8.43877 22.3111 8.29846 22.4075C8.24494 22.4445 8.18554 22.4787 8.12614 22.5129C7.98614 22.5936 7.84613 22.6743 7.78305 22.7904C7.71716 22.9132 7.72975 23.0704 7.7423 23.2272C7.74731 23.2898 7.75232 23.3523 7.75232 23.4125C7.75389 23.6062 7.75755 23.799 7.76122 23.9922L7.76122 23.9922C7.76307 24.0896 7.76492 24.187 7.7665 24.2847C7.76887 24.3957 7.81142 24.437 7.94619 24.4044C8.41194 24.2891 8.88006 24.1825 9.35055 24.0781C9.42787 24.0607 9.50533 24.0414 9.58294 24.0221C9.81623 23.9641 10.0508 23.9057 10.2868 23.8975C10.8278 23.8782 11.3676 23.8827 11.9079 23.8873C12.0972 23.8889 12.2866 23.8905 12.4761 23.891C12.5494 23.891 12.6274 23.8997 12.7007 23.9171C13.1083 24.0095 13.5143 24.1034 13.9214 24.1976L14.1665 24.2543C14.4147 24.3114 14.663 24.3666 14.9267 24.4252L14.9798 24.437C14.9817 24.3996 14.9844 24.3656 14.9869 24.3336V24.3336C14.9906 24.2856 14.994 24.2421 14.994 24.1977C14.9949 24.0363 14.9948 23.8745 14.9947 23.7126V23.7126V23.7126V23.7126V23.7125C14.9945 23.4427 14.9943 23.1727 14.9987 22.9035C15.0011 22.8121 14.968 22.7599 14.89 22.7077C14.6075 22.5152 14.3262 22.3211 14.0449 22.127L14.0448 22.1269C13.7634 21.9328 13.4821 21.7387 13.1996 21.5462C13.105 21.4809 13.0601 21.4156 13.0624 21.3025C13.0675 21.0136 13.0665 20.7259 13.0656 20.4376V20.4376V20.4376V20.4376V20.4375V20.4373V20.4371V20.4369V20.4367C13.0652 20.3216 13.0648 20.2064 13.0648 20.0909V19.9322C13.8606 20.0232 14.6492 20.1142 15.4378 20.2052L15.4413 20.2056C15.9331 20.2624 16.425 20.3191 16.9185 20.3759C16.9195 20.3509 16.9209 20.3285 16.9221 20.3075L16.9221 20.3075L16.9221 20.3073C16.924 20.2774 16.9256 20.2505 16.9256 20.2236L16.9253 19.6527V19.6522V19.6521V19.652V19.6519C16.9249 19.0813 16.9244 18.5109 16.928 17.9418C16.928 17.8353 16.8925 17.7896 16.7838 17.7526C16.1868 17.5503 15.591 17.3464 14.9952 17.1425C14.3994 16.9385 13.8036 16.7346 13.2066 16.5323C13.0979 16.4953 13.0624 16.4497 13.0624 16.3431C13.0553 15.4405 13.0435 14.54 13.0317 13.6396L13.0317 13.6393C13.0317 13.5893 13.0293 13.5305 13.0057 13.4892L12.973 13.4319C12.8895 13.285 12.8053 13.1369 12.7007 13.0041C12.1995 12.3712 11.2018 12.0819 10.4026 12.667C9.93925 13.0063 9.70755 13.4414 9.70992 13.996C9.71129 14.4469 9.70394 14.8977 9.69659 15.3485L9.69659 15.3485C9.69125 15.6764 9.6859 16.0043 9.68391 16.3322C9.68391 16.4518 9.63899 16.4997 9.52078 16.5388C8.80866 16.7803 8.09655 17.0241 7.38443 17.2679C6.90969 17.4304 6.43495 17.5929 5.96021 17.7548C5.86328 17.7896 5.81836 17.8244 5.81836 17.931C5.82191 18.5068 5.82146 19.0839 5.82102 19.6613L5.82072 20.2389C5.82072 20.269 5.82352 20.3004 5.82697 20.3391ZM12.1002 22.8828V22.8143C12.1002 22.0595 12.1002 21.3025 12.0978 20.5477C12.0907 18.2529 12.0813 15.9602 12.0694 13.6654C12.0694 13.6088 12.0623 13.5349 12.0269 13.4957C11.7928 13.2412 11.4878 13.1564 11.1356 13.2217C11.1213 13.2243 11.1068 13.228 11.0922 13.2326C11.1062 13.2283 11.12 13.2248 11.1337 13.2223C11.4883 13.157 11.7909 13.2418 12.025 13.4963C12.0605 13.5355 12.0676 13.6073 12.0676 13.666C12.0794 15.9608 12.0888 18.2535 12.0959 20.5483C12.0983 21.303 12.0983 22.0598 12.0983 22.8144V22.8149C12.0993 22.8371 12.0998 22.8593 12.1002 22.8828ZM6.76642 19.3905H6.76649L6.7663 19.201C6.76592 18.9497 6.76555 18.7029 6.77122 18.4561C6.77122 18.4311 6.80767 18.396 6.84294 18.3769C6.80693 18.3957 6.76879 18.4319 6.76879 18.4574C6.76525 18.687 6.76568 18.9178 6.76613 19.1525C6.76627 19.2314 6.76642 19.3107 6.76642 19.3905ZM8.16601 17.9199L8.1659 17.92L8.16578 17.92C7.95962 17.9906 7.75346 18.0611 7.54742 18.1318C7.92879 18.0005 8.31049 17.8697 8.69233 17.7388L8.69307 17.7386L9.3165 17.5248C8.93359 17.6573 8.54986 17.7886 8.16613 17.9199L8.16601 17.9199ZM9.57752 19.0577C9.5982 19.0553 9.62523 19.0413 9.64549 19.0247C9.62507 19.0407 9.59883 19.0541 9.57995 19.0564C9.16858 19.1117 8.75512 19.1631 8.3435 19.2142L8.34343 19.2142L8.26543 19.2239C7.80697 19.2805 7.34852 19.3348 6.89007 19.3892L6.89006 19.3892L6.89005 19.3892L6.89004 19.3892L6.88943 19.3892C6.8694 19.3917 6.84936 19.3921 6.82634 19.3919C6.849 19.3927 6.86837 19.393 6.887 19.3905C7.34567 19.3362 7.80433 19.2818 8.263 19.2252C8.70275 19.1708 9.14013 19.1165 9.57752 19.0577ZM13.0861 19.0577V17.4198C13.3638 17.5097 13.6137 17.591 13.8569 17.6742C13.7419 17.636 13.6253 17.5977 13.5052 17.5582C13.3707 17.514 13.2319 17.4683 13.0862 17.4199V19.0557L13.0912 19.0563C14.047 19.1692 15.0029 19.2821 15.9799 19.3972V19.3992C15.0067 19.2846 14.0545 19.1721 13.1024 19.0597L13.0997 19.0593L13.0967 19.059L13.0946 19.0587L13.0861 19.0577ZM8.72875 23.2711C8.72166 23.258 8.7122 23.2428 8.70275 23.2276L8.79059 23.1644L8.70337 23.2281L8.70339 23.2282C8.71284 23.2434 8.72229 23.2586 8.73174 23.2716C8.73867 23.2724 8.74591 23.2744 8.75313 23.2763C8.76015 23.2782 8.76713 23.2801 8.77377 23.2809C8.76394 23.2806 8.7532 23.2776 8.74266 23.2747L8.74265 23.2747C8.73794 23.2734 8.73328 23.2721 8.72875 23.2711ZM9.44578 22.687C9.50721 22.6417 9.56847 22.5964 9.62953 22.5511L9.63169 22.5522L9.44578 22.687ZM13.0825 22.5729C13.089 22.569 13.0955 22.5652 13.1026 22.562C13.103 22.5622 13.1034 22.5625 13.1038 22.5628C13.095 22.5669 13.0872 22.5717 13.0797 22.5764C13.0752 22.5792 13.0707 22.5819 13.0663 22.5844C13.0663 22.6246 13.0658 22.6651 13.0653 22.7057C13.0639 22.8147 13.0624 22.9247 13.071 23.0325C13.0734 23.0694 13.1372 23.1216 13.1822 23.1325C13.1931 23.1353 13.204 23.1381 13.2149 23.1409C13.2027 23.1379 13.1905 23.1349 13.1783 23.1319C13.1334 23.1188 13.0695 23.0688 13.0672 23.0318C13.0586 22.9243 13.06 22.8156 13.0614 22.7066V22.7066V22.7066V22.7066V22.7066L13.0614 22.7065C13.0619 22.6656 13.0624 22.6247 13.0624 22.5837C13.0695 22.5805 13.076 22.5767 13.0825 22.5729ZM13.7224 23.2527C13.7537 23.2589 13.7852 23.265 13.8166 23.2711C13.8198 23.2717 13.8229 23.2723 13.8261 23.2728C13.8242 23.2725 13.8224 23.2721 13.8205 23.2717C13.7877 23.2654 13.755 23.2591 13.7224 23.2527Z" fill="url(#paint4_linear)"/>
<defs>
<linearGradient id="paint0_linear" x1="-0.326647" y1="26.3865" x2="-5.75282" y2="-25.2991" gradientUnits="userSpaceOnUse">
<stop offset="0.203125" stop-color="#D91A21"/>
<stop offset="1" stop-color="#6F0000"/>
</linearGradient>
<linearGradient id="paint1_linear" x1="16.5176" y1="12.7498" x2="15.2611" y2="-0.726735" gradientUnits="userSpaceOnUse">
<stop offset="0.203125" stop-color="#D91A21"/>
<stop offset="1" stop-color="#6F0000"/>
</linearGradient>
<linearGradient id="paint2_linear" x1="1.93103" y1="20.6905" x2="0.0703174" y2="15.5962" gradientUnits="userSpaceOnUse">
<stop offset="0.203125" stop-color="#D91A21"/>
<stop offset="1" stop-color="#6F0000"/>
</linearGradient>
<linearGradient id="paint3_linear" x1="1.93299" y1="17.1908" x2="1.70807" y2="15.3186" gradientUnits="userSpaceOnUse">
<stop offset="0.203125" stop-color="#D91A21"/>
<stop offset="1" stop-color="#6F0000"/>
</linearGradient>
<linearGradient id="paint4_linear" x1="5.6974" y1="24.128" x2="2.0148" y2="-1.66408" gradientUnits="userSpaceOnUse">
<stop offset="0.203125" stop-color="#D91A21"/>
<stop offset="1" stop-color="#6F0000"/>
</linearGradient>
</defs>
</svg>
