<svg width="30" height="30" viewBox="0 0 30 30" fill="none" xmlns="http://www.w3.org/2000/svg">
<path d="M27.4924 2.00462C27.6656 2.06934 27.85 2.11557 28.0141 2.2034C28.5155 2.4669 28.7628 2.90606 28.8415 3.47235C28.9989 4.60262 29.1721 5.72827 29.3317 6.85854C29.5206 8.20377 29.7027 9.54899 29.8848 10.8942C29.9321 11.2502 29.9995 11.6084 29.9995 11.9644C29.9995 12.6694 29.3857 13.379 28.7111 13.4853C27.5149 13.6748 26.3187 13.8528 25.1225 14.0331C23.9331 14.2111 22.7414 14.389 21.5497 14.5624C21.2529 14.6063 20.9561 14.6479 20.6593 14.678C20.5379 14.6895 20.4839 14.7311 20.4794 14.8629C20.4727 15.0686 20.4434 15.272 20.4389 15.4777C20.4232 16.259 20.0837 16.8715 19.4991 17.343C18.8987 17.8284 18.2534 18.2491 17.5136 18.4733C17.273 18.5449 17.0122 18.5657 16.7581 18.575C16.5648 18.5842 16.5445 18.5287 16.6142 18.3346C17.1067 16.9616 17.9409 15.8891 19.1798 15.1356C19.9083 14.6918 20.5896 14.1648 21.3023 13.6933C21.4395 13.6009 21.6261 13.5708 21.7948 13.5454C22.9865 13.3674 24.1782 13.2033 25.3699 13.0276C26.3929 12.8751 27.416 12.7133 28.4391 12.5469C28.574 12.5238 28.7156 12.4613 28.8258 12.3781C29.0102 12.2395 29.0686 12.0337 29.0372 11.7957C28.8258 10.2077 28.6144 8.62213 28.4098 7.03189C28.3896 6.8701 28.3221 6.84698 28.1895 6.86547C27.0765 7.01802 25.9635 7.16595 24.8527 7.3185C23.6408 7.48492 22.4311 7.65366 21.2192 7.82701C19.942 8.01192 18.6649 8.20608 17.3877 8.39561C16.3377 8.55279 15.2876 8.70765 14.2398 8.86482C13.8598 8.92261 13.4821 8.99195 13.0819 9.05898C13.1291 9.45654 13.1695 9.83098 13.2168 10.2031C13.3359 11.1184 13.4619 12.0314 13.581 12.9467C13.6462 13.4414 13.6485 13.4599 13.1943 13.6471C12.3556 13.9915 11.5057 14.3151 10.6625 14.6456C10.5231 14.7011 10.3814 14.7496 10.242 14.8097C10.1296 14.8583 10.0621 14.9623 10.1251 15.0709C10.1633 15.1402 10.287 15.2188 10.3522 15.2026C10.6962 15.1171 11.047 15.0339 11.3753 14.8975C12.3916 14.4746 13.4056 14.0423 14.4062 13.5754C14.6378 13.4668 14.8109 13.2218 15.0043 13.0299C15.6474 12.4012 16.2657 11.7448 16.9313 11.1439C17.7048 10.4481 18.5907 9.93731 19.6047 9.69923C19.9937 9.60909 20.385 9.59291 20.765 9.74777C21.2934 9.96504 21.5474 10.4065 21.6104 10.9474C21.761 12.2811 21.1494 13.2472 20.1241 13.973C19.625 14.3243 19.0988 14.6364 18.5862 14.9646C17.5654 15.6164 16.8593 16.5294 16.3894 17.6666C15.8228 19.0442 15.2112 20.401 14.4152 21.6607C13.6462 22.8765 12.7266 23.9374 11.4899 24.6724C10.6377 25.1786 9.72711 25.5415 8.76475 25.7703C8.59837 25.8096 8.4792 25.7865 8.36003 25.6339C6.90525 23.7802 5.44373 21.9334 3.98446 20.082C3.83831 19.8971 3.69665 19.7099 3.56849 19.5111C3.53027 19.4533 3.51902 19.3377 3.5505 19.2753C4.05866 18.2606 4.56907 17.2459 5.09522 16.2405C6.07331 14.3682 7.08963 12.5191 8.24985 10.7578C8.28807 10.7001 8.33304 10.6446 8.36452 10.5822C8.78274 9.79631 9.46179 9.37564 10.269 9.13757C10.7772 8.98733 11.2898 8.84864 11.8047 8.72614C11.9823 8.68453 12.0296 8.60364 12.0071 8.43722C11.9374 7.89173 11.8654 7.34393 11.8025 6.79613C11.7552 6.37084 11.6631 5.93629 11.6923 5.51562C11.753 4.6997 12.4096 4.10567 13.2168 3.99935C14.2443 3.86529 15.2651 3.70118 16.2905 3.55325C17.019 3.44693 17.7475 3.34292 18.476 3.23659C19.4946 3.08866 20.5131 2.93611 21.5317 2.79049C22.5817 2.64025 23.6318 2.49233 24.6818 2.34902C25.4913 2.23807 26.303 2.13637 27.1124 2.03005C27.1282 2.02774 27.1439 2.01156 27.1574 2C27.2653 2.00462 27.38 2.00462 27.4924 2.00462ZM12.7333 6.80769C17.8599 6.07035 22.9482 5.33533 28.0568 4.60031C28.0276 4.1519 28.0051 3.72198 27.8252 3.32674C27.7083 3.06786 27.416 2.91762 27.1417 2.95691C26.4941 3.04706 25.8443 3.14183 25.1967 3.23659C23.625 3.46773 22.0511 3.69887 20.4794 3.93001C18.8942 4.16346 17.3068 4.39691 15.7216 4.63267C14.8694 4.7598 14.0195 4.88924 13.1673 5.01867C12.8705 5.0649 12.5939 5.33764 12.6097 5.61963C12.6299 6.00332 12.6861 6.38933 12.7333 6.80769Z" fill="url(#paint0_linear)"/>
<path d="M0 21.1267C0.105679 20.995 0.19337 20.847 0.317037 20.7361C0.811706 20.2923 1.31087 19.8578 1.81678 19.4302C1.91796 19.3446 2.05062 19.2707 2.17879 19.2429C2.40364 19.1944 2.59476 19.2591 2.75665 19.4579C3.93486 20.9141 5.12656 22.3587 6.30477 23.8126C6.95234 24.6123 7.57292 25.4328 8.22498 26.228C8.50155 26.5654 8.47681 27.0624 8.13729 27.3328C7.59541 27.765 7.076 28.2273 6.53187 28.6595C6.1946 28.9277 5.90229 28.8976 5.60324 28.5671C5.30644 28.2389 5.03212 27.8875 4.75331 27.5408C3.23333 25.6362 1.71335 23.7317 0.195619 21.8224C0.107928 21.7115 0.0652063 21.5659 0 21.4341C0 21.3324 0 21.2307 0 21.1267Z" fill="url(#paint1_linear)"/>
<path d="M15.8027 20.2052C15.9669 19.8261 16.1085 19.4771 16.2682 19.1373C16.2907 19.0888 16.3828 19.0564 16.4436 19.0518C16.8213 19.0218 17.2103 19.0518 17.5745 18.9663C18.1884 18.8253 18.7213 18.4763 19.2474 18.1319C19.3216 18.0833 19.3958 18.0371 19.47 17.9909C19.4858 17.9816 19.5038 17.9816 19.5487 17.9678C19.5442 18.0464 19.5442 18.1111 19.5352 18.1758C19.5285 18.2266 19.5082 18.2752 19.4993 18.3237C19.3643 19.0171 18.9371 19.4286 18.3255 19.7314C17.5858 20.0966 16.828 20.2792 16.0141 20.2399C15.9556 20.2376 15.8972 20.2214 15.8027 20.2052Z" fill="url(#paint2_linear)"/>
<path d="M18.8871 20.029C18.7702 20.5976 18.4576 21.009 17.9697 21.2864C17.547 21.5267 17.0905 21.6608 16.6116 21.6631C16.1462 21.6654 15.6807 21.6169 15.2131 21.5868C15.1726 21.5845 15.1321 21.5614 15.0557 21.5383C15.2063 21.2656 15.348 21.0067 15.4986 20.7524C15.5189 20.7178 15.5976 20.7062 15.647 20.7062C15.9663 20.697 16.2856 20.6808 16.6026 20.6946C17.3356 20.727 17.9832 20.4612 18.6173 20.1307C18.6892 20.0937 18.7634 20.0567 18.8376 20.022C18.8466 20.0174 18.8601 20.0243 18.8871 20.029Z" fill="url(#paint3_linear)"/>
<defs>
<linearGradient id="paint0_linear" x1="3.24405" y1="25.1791" x2="-2.78058" y2="-25.9022" gradientUnits="userSpaceOnUse">
<stop offset="0.203125" stop-color="#D91A21"/>
<stop offset="1" stop-color="#6F0000"/>
</linearGradient>
<linearGradient id="paint1_linear" x1="-0.0916145" y1="28.5944" x2="-3.16045" y2="8.12496" gradientUnits="userSpaceOnUse">
<stop offset="0.203125" stop-color="#D91A21"/>
<stop offset="1" stop-color="#6F0000"/>
</linearGradient>
<linearGradient id="paint2_linear" x1="15.7619" y1="20.1869" x2="15.3689" y2="15.2598" gradientUnits="userSpaceOnUse">
<stop offset="0.203125" stop-color="#D91A21"/>
<stop offset="1" stop-color="#6F0000"/>
</linearGradient>
<linearGradient id="paint3_linear" x1="15.0139" y1="21.6212" x2="14.8133" y2="18.0559" gradientUnits="userSpaceOnUse">
<stop offset="0.203125" stop-color="#D91A21"/>
<stop offset="1" stop-color="#6F0000"/>
</linearGradient>
</defs>
</svg>
